<?xml version="1.0" standalone="no"?>
<!DOCTYPE svg PUBLIC "-//W3C//DTD SVG 20010904//EN"
 "http://www.w3.org/TR/2001/REC-SVG-20010904/DTD/svg10.dtd">
<svg version="1.0" xmlns="http://www.w3.org/2000/svg"
 width="300.000000pt" height="217.000000pt" viewBox="0 0 300.000000 217.000000"
 preserveAspectRatio="xMidYMid meet">
<metadata>
Created by potrace 1.10, written by Peter Selinger 2001-2011
</metadata>
<g transform="translate(0.000000,217.000000) scale(0.100000,-0.100000)"
fill="#000000" stroke="none">
<path d="M1128 1263 c18 -2 45 -2 60 0 15 2 0 4 -33 4 -33 0 -45 -2 -27 -4z"/>
<path d="M929 1225 c-48 -26 -47 -65 2 -90 41 -22 49 -18 12 5 -20 12 -33 28
-33 40 0 12 13 28 33 40 37 23 26 27 -14 5z"/>
<path d="M999 1225 c-139 -44 -44 -105 164 -105 96 0 196 21 163 33 -26 10
-38 8 -30 -4 9 -15 -82 -4 -124 13 l-27 12 40 6 40 7 -40 2 c-22 1 -53 8 -70
17 -29 14 -28 14 30 10 33 -2 74 -11 90 -20 41 -22 69 -21 61 2 -3 9 5 4 18
-11 14 -18 31 -28 42 -25 32 6 21 32 -21 53 -53 26 -265 33 -336 10z m99 -39
c11 -8 11 -11 0 -17 -18 -12 -52 -11 -85 2 l-28 12 25 8 c32 9 71 8 88 -5z
m90 -53 c-15 -2 -42 -2 -60 0 -18 2 -6 4 27 4 33 0 48 -2 33 -4z"/>
<path d="M1378 1211 c35 -34 27 -51 -38 -80 -25 -11 -38 -21 -30 -21 8 0 33
11 55 23 48 27 54 61 15 85 l-25 16 23 -23z"/>
<path d="M2000 1183 c-28 -10 -59 -45 -65 -74 -4 -19 -13 -29 -25 -29 -10 0
-20 -10 -24 -22 -9 -34 -8 -38 13 -38 18 0 18 -2 0 -77 -10 -43 -18 -79 -19
-79 0 -1 21 -1 47 1 l47 2 15 76 c14 74 15 77 41 77 23 0 28 5 32 30 4 26 2
29 -26 32 l-31 3 22 22 c13 13 29 20 41 16 16 -4 20 1 24 26 3 17 2 33 0 36
-7 7 -73 5 -92 -2z m6 -62 c-14 -15 -15 -23 -5 -45 11 -23 10 -29 -8 -45 -11
-10 -26 -40 -33 -65 -19 -69 -28 -64 -26 12 1 73 35 158 66 165 23 5 25 -1 6
-22z"/>
<path d="M2184 1180 c-27 -11 -64 -57 -64 -81 0 -12 -7 -19 -20 -19 -11 0 -20
-6 -20 -14 0 -8 -3 -21 -6 -30 -4 -11 0 -16 13 -16 19 0 19 -1 2 -72 -10 -40
-19 -76 -19 -79 0 -3 20 -5 45 -5 l44 1 17 77 c15 70 19 77 42 80 18 2 28 11
33 31 7 25 5 27 -23 27 -29 0 -30 1 -15 23 8 12 24 21 35 20 19 -2 31 20 32
55 0 14 -63 16 -96 2z m8 -56 c-6 -10 -6 -29 -1 -46 6 -23 3 -33 -15 -51 -14
-14 -26 -42 -30 -70 -10 -69 -31 -74 -23 -6 3 30 2 63 -2 74 -8 19 18 69 55
107 21 21 30 16 16 -8z"/>
<path d="M1792 1168 c-30 -30 -3 -72 44 -66 34 4 53 31 38 56 -13 21 -64 28
-82 10z"/>
<path d="M2306 1165 c-9 -9 -16 -22 -16 -29 0 -37 73 -47 94 -13 25 39 -43 76
-78 42z"/>
<path d="M137 1163 c-3 -5 -7 -21 -8 -38 -4 -29 -3 -29 39 -26 23 1 42 1 42
-1 0 -2 -11 -53 -25 -113 -14 -61 -25 -113 -25 -116 0 -3 20 -5 45 -5 37 1 47
5 50 21 17 73 45 206 45 210 0 3 20 5 44 5 37 0 45 4 50 23 12 47 13 47 -123
47 -72 0 -132 -3 -134 -7z m143 -40 c-1 -5 -10 -24 -21 -43 -19 -33 -20 -33
-16 -8 2 15 0 25 -4 22 -5 -3 -9 -3 -9 0 0 2 -3 11 -6 20 -5 13 1 16 25 16 17
0 31 -3 31 -7z"/>
<path d="M1496 1148 c-12 -48 -8 -54 34 -50 22 2 40 0 40 -5 0 -10 -38 -190
-46 -214 -4 -14 3 -16 43 -14 l48 3 24 116 24 116 43 0 c43 0 54 10 54 51 0
18 -8 19 -129 19 -125 0 -129 -1 -135 -22z m167 -25 c-3 -7 -9 -13 -14 -13 -9
0 -25 -53 -43 -140 -11 -54 -33 -69 -29 -20 1 14 5 55 8 91 6 55 4 67 -9 72
-36 14 -14 28 38 26 40 -2 53 -6 49 -16z"/>
<path d="M2843 1145 c-14 -11 -16 -18 -7 -32 17 -28 48 -23 51 9 2 31 -18 42
-44 23z"/>
<path d="M457 1076 c-52 -19 -75 -42 -88 -87 -30 -98 34 -164 105 -108 24 19
26 19 26 2 0 -15 8 -18 42 -17 l42 1 12 69 c6 38 15 86 19 107 6 33 5 37 -12
37 -11 0 -40 2 -64 5 -26 3 -60 -1 -82 -9z m63 -77 c-13 -43 -39 -81 -53 -76
-7 2 -13 18 -15 35 -4 35 26 72 57 72 17 0 18 -4 11 -31z"/>
<path d="M740 1080 c-67 -16 -108 -81 -101 -160 5 -57 71 -80 111 -40 24 24
32 25 28 4 -2 -12 6 -16 37 -18 l40 -2 21 103 c11 57 18 105 15 107 -16 9
-120 13 -151 6z m55 -72 c-21 -76 -43 -100 -65 -73 -22 27 15 95 52 95 15 0
18 -5 13 -22z m27 -90 c-20 -20 -33 -3 -15 19 15 18 19 20 21 7 2 -9 -1 -21
-6 -26z"/>
<path d="M2560 1083 c-8 -3 -25 -15 -37 -26 l-23 -20 0 21 c0 19 -6 22 -43 22
l-42 0 -19 -102 c-10 -57 -19 -105 -20 -108 0 -3 19 -4 43 -4 l45 1 13 63 c13
68 32 96 56 87 13 -5 13 -13 0 -68 -8 -35 -15 -67 -16 -73 -1 -6 18 -10 43 -9
l45 0 12 59 c20 94 19 135 -2 150 -20 15 -30 16 -55 7z m-86 -48 c3 -8 -1 -27
-9 -42 -7 -16 -19 -43 -26 -60 -16 -46 -28 -32 -16 19 21 90 37 117 51 83z
m118 -36 c-3 -58 -10 -89 -21 -89 -5 0 -7 25 -6 55 2 32 -2 55 -7 55 -6 0 -5
7 2 15 22 26 35 11 32 -36z"/>
<path d="M2730 1077 c-39 -13 -65 -55 -55 -87 4 -12 23 -28 42 -38 57 -27 38
-42 -37 -31 -22 4 -25 0 -25 -26 0 -29 2 -30 52 -33 62 -4 109 17 124 55 12
32 -10 70 -46 79 -14 3 -25 13 -25 21 0 12 8 14 39 9 36 -5 39 -4 45 20 4 15
6 28 4 29 -12 11 -89 12 -118 2z m20 -47 c0 -5 -5 -10 -10 -10 -6 0 -3 -11 6
-25 9 -14 22 -25 29 -25 16 0 26 -25 18 -46 -4 -12 -9 -9 -19 15 -7 17 -20 31
-29 31 -8 0 -21 12 -27 26 -10 21 -9 27 3 35 19 12 29 11 29 -1z"/>
<path d="M928 1050 c-4 -30 -4 -30 41 -30 l46 0 -62 -57 c-34 -32 -64 -67 -67
-78 -6 -19 -1 -20 102 -18 l107 1 6 32 7 32 -44 -6 c-24 -3 -44 -3 -44 0 0 3
24 28 54 57 30 29 58 62 61 75 6 22 5 22 -98 22 l-105 0 -4 -30z m138 -12 c4
-6 -1 -17 -12 -25 -15 -11 -19 -11 -27 3 -14 25 24 46 39 22z m-66 -118 c0
-13 -7 -20 -20 -20 -22 0 -23 1 -14 24 9 23 34 20 34 -4z"/>
<path d="M1215 1070 c-63 -25 -97 -130 -61 -185 20 -31 67 -34 96 -5 24 24 32
25 28 4 -2 -12 7 -16 39 -18 l41 -2 16 85 c9 47 19 96 22 109 6 22 5 22 -77
21 -46 0 -93 -4 -104 -9z m85 -46 c0 -25 -27 -87 -41 -94 -39 -21 -45 42 -7
87 11 13 48 18 48 7z"/>
<path d="M1756 988 c-11 -50 -21 -99 -23 -108 -3 -13 4 -16 36 -15 22 0 43 4
47 8 6 6 43 169 44 195 0 8 -15 12 -43 12 l-43 0 -18 -92z m60 10 c-4 -23 -12
-48 -17 -55 -6 -6 -8 -17 -5 -22 4 -5 1 -13 -5 -17 -9 -5 -10 7 -6 49 8 65 15
87 29 87 7 0 8 -16 4 -42z"/>
<path d="M2266 993 c-11 -49 -21 -97 -23 -108 -4 -18 1 -20 40 -20 l45 0 21
100 c12 55 21 103 21 108 0 4 -19 7 -43 7 l-43 0 -18 -87z m60 25 c-3 -18 -9
-50 -12 -70 -4 -21 -12 -38 -19 -38 -7 0 -12 8 -10 18 18 86 29 122 37 122 6
0 8 -13 4 -32z"/>
</g>
</svg>
